<mxfile host="app.diagrams.net" modified="2023-05-25T03:26:36.865Z" agent="Mozilla/5.0 (Windows NT 10.0; Win64; x64) AppleWebKit/537.36 (KHTML, like Gecko) Chrome/113.0.0.0 Safari/537.36" etag="CK9k1ZnzeCVqBYamsoE4" version="21.3.2" type="device">
  <diagram name="페이지-1" id="Rqv8MLzrmBsNatyuL9q9">
    <mxGraphModel dx="2390" dy="1357" grid="1" gridSize="10" guides="1" tooltips="1" connect="1" arrows="1" fold="1" page="1" pageScale="1" pageWidth="3300" pageHeight="4681" math="0" shadow="0">
      <root>
        <mxCell id="0" />
        <mxCell id="1" parent="0" />
        <mxCell id="rEnnl2mZhtEM8N6RFNqr-10" value="" style="edgeStyle=orthogonalEdgeStyle;rounded=0;orthogonalLoop=1;jettySize=auto;html=1;" parent="1" source="rEnnl2mZhtEM8N6RFNqr-11" target="rEnnl2mZhtEM8N6RFNqr-13" edge="1">
          <mxGeometry relative="1" as="geometry" />
        </mxCell>
        <mxCell id="rEnnl2mZhtEM8N6RFNqr-11" value="router-view" style="rounded=0;whiteSpace=wrap;html=1;" parent="1" vertex="1">
          <mxGeometry x="1870" y="350" width="120" height="60" as="geometry" />
        </mxCell>
        <mxCell id="rEnnl2mZhtEM8N6RFNqr-38" value="" style="edgeStyle=orthogonalEdgeStyle;rounded=0;orthogonalLoop=1;jettySize=auto;html=1;" parent="1" source="rEnnl2mZhtEM8N6RFNqr-13" target="rEnnl2mZhtEM8N6RFNqr-37" edge="1">
          <mxGeometry relative="1" as="geometry" />
        </mxCell>
        <mxCell id="rEnnl2mZhtEM8N6RFNqr-13" value="MainView.vue&lt;br style=&quot;border-color: var(--border-color);&quot;&gt;(/)" style="rounded=0;whiteSpace=wrap;html=1;" parent="1" vertex="1">
          <mxGeometry x="1870" y="490" width="120" height="60" as="geometry" />
        </mxCell>
        <mxCell id="rEnnl2mZhtEM8N6RFNqr-14" value="Community" style="whiteSpace=wrap;html=1;rounded=0;" parent="1" vertex="1">
          <mxGeometry x="1410" y="410" width="120" height="60" as="geometry" />
        </mxCell>
        <mxCell id="rEnnl2mZhtEM8N6RFNqr-45" style="edgeStyle=orthogonalEdgeStyle;rounded=0;orthogonalLoop=1;jettySize=auto;html=1;" parent="1" source="rEnnl2mZhtEM8N6RFNqr-16" target="rEnnl2mZhtEM8N6RFNqr-44" edge="1">
          <mxGeometry relative="1" as="geometry" />
        </mxCell>
        <mxCell id="rEnnl2mZhtEM8N6RFNqr-16" value="Accounts&lt;br&gt;(로그인상태)" style="whiteSpace=wrap;html=1;rounded=0;" parent="1" vertex="1">
          <mxGeometry x="1410" y="490" width="120" height="60" as="geometry" />
        </mxCell>
        <mxCell id="rEnnl2mZhtEM8N6RFNqr-24" value="" style="edgeStyle=orthogonalEdgeStyle;rounded=0;orthogonalLoop=1;jettySize=auto;html=1;entryX=1;entryY=0.5;entryDx=0;entryDy=0;" parent="1" source="rEnnl2mZhtEM8N6RFNqr-19" target="rEnnl2mZhtEM8N6RFNqr-16" edge="1">
          <mxGeometry relative="1" as="geometry" />
        </mxCell>
        <mxCell id="rEnnl2mZhtEM8N6RFNqr-19" value="router-link" style="rounded=0;whiteSpace=wrap;html=1;" parent="1" vertex="1">
          <mxGeometry x="1580" y="490" width="120" height="60" as="geometry" />
        </mxCell>
        <mxCell id="rEnnl2mZhtEM8N6RFNqr-36" value="" style="edgeStyle=orthogonalEdgeStyle;rounded=0;orthogonalLoop=1;jettySize=auto;html=1;" parent="1" source="rEnnl2mZhtEM8N6RFNqr-21" target="rEnnl2mZhtEM8N6RFNqr-19" edge="1">
          <mxGeometry relative="1" as="geometry" />
        </mxCell>
        <mxCell id="rEnnl2mZhtEM8N6RFNqr-21" value="NavBar" style="rounded=0;whiteSpace=wrap;html=1;" parent="1" vertex="1">
          <mxGeometry x="1720" y="490" width="120" height="60" as="geometry" />
        </mxCell>
        <mxCell id="rEnnl2mZhtEM8N6RFNqr-32" style="edgeStyle=orthogonalEdgeStyle;rounded=0;orthogonalLoop=1;jettySize=auto;html=1;exitX=0;exitY=0.5;exitDx=0;exitDy=0;entryX=0.5;entryY=0;entryDx=0;entryDy=0;" parent="1" source="QTcGTWtoXZyI2AgszmAy-1" target="rEnnl2mZhtEM8N6RFNqr-21" edge="1">
          <mxGeometry relative="1" as="geometry" />
        </mxCell>
        <mxCell id="rEnnl2mZhtEM8N6RFNqr-79" value="" style="edgeStyle=orthogonalEdgeStyle;rounded=0;orthogonalLoop=1;jettySize=auto;html=1;" parent="1" source="rEnnl2mZhtEM8N6RFNqr-37" target="rEnnl2mZhtEM8N6RFNqr-78" edge="1">
          <mxGeometry relative="1" as="geometry" />
        </mxCell>
        <mxCell id="rEnnl2mZhtEM8N6RFNqr-37" value="CommunityView" style="rounded=0;whiteSpace=wrap;html=1;" parent="1" vertex="1">
          <mxGeometry x="1870" y="760" width="120" height="60" as="geometry" />
        </mxCell>
        <mxCell id="lQRUAugFmaF-d2rS6yZW-28" value="" style="edgeStyle=none;curved=1;rounded=0;orthogonalLoop=1;jettySize=auto;html=1;fontSize=12;startSize=8;endSize=8;" edge="1" parent="1" source="rEnnl2mZhtEM8N6RFNqr-44" target="lQRUAugFmaF-d2rS6yZW-27">
          <mxGeometry relative="1" as="geometry" />
        </mxCell>
        <mxCell id="rEnnl2mZhtEM8N6RFNqr-44" value="MyProfile" style="whiteSpace=wrap;html=1;rounded=0;" parent="1" vertex="1">
          <mxGeometry x="1210" y="490" width="120" height="60" as="geometry" />
        </mxCell>
        <mxCell id="rEnnl2mZhtEM8N6RFNqr-55" value="" style="edgeStyle=orthogonalEdgeStyle;rounded=0;orthogonalLoop=1;jettySize=auto;html=1;" parent="1" source="rEnnl2mZhtEM8N6RFNqr-51" target="rEnnl2mZhtEM8N6RFNqr-54" edge="1">
          <mxGeometry relative="1" as="geometry" />
        </mxCell>
        <mxCell id="rEnnl2mZhtEM8N6RFNqr-51" value="SearchView" style="rounded=0;whiteSpace=wrap;html=1;" parent="1" vertex="1">
          <mxGeometry x="1570" y="760" width="120" height="60" as="geometry" />
        </mxCell>
        <mxCell id="rEnnl2mZhtEM8N6RFNqr-53" value="" style="endArrow=classic;html=1;rounded=0;entryX=0.5;entryY=0;entryDx=0;entryDy=0;" parent="1" target="rEnnl2mZhtEM8N6RFNqr-51" edge="1">
          <mxGeometry width="50" height="50" relative="1" as="geometry">
            <mxPoint x="1930" y="690" as="sourcePoint" />
            <mxPoint x="1940" y="590" as="targetPoint" />
            <Array as="points">
              <mxPoint x="1630" y="690" />
            </Array>
          </mxGeometry>
        </mxCell>
        <mxCell id="rEnnl2mZhtEM8N6RFNqr-73" value="" style="edgeStyle=orthogonalEdgeStyle;rounded=0;orthogonalLoop=1;jettySize=auto;html=1;" parent="1" target="rEnnl2mZhtEM8N6RFNqr-72" edge="1">
          <mxGeometry relative="1" as="geometry">
            <mxPoint x="1700" y="970" as="sourcePoint" />
          </mxGeometry>
        </mxCell>
        <mxCell id="rEnnl2mZhtEM8N6RFNqr-54" value="SerchTitleList" style="rounded=0;whiteSpace=wrap;html=1;" parent="1" vertex="1">
          <mxGeometry x="1570" y="910" width="120" height="60" as="geometry" />
        </mxCell>
        <mxCell id="rEnnl2mZhtEM8N6RFNqr-62" value="" style="edgeStyle=orthogonalEdgeStyle;rounded=0;orthogonalLoop=1;jettySize=auto;html=1;entryX=0.5;entryY=0;entryDx=0;entryDy=0;" parent="1" target="rEnnl2mZhtEM8N6RFNqr-64" edge="1">
          <mxGeometry relative="1" as="geometry">
            <mxPoint x="1330.0588235294117" y="825" as="sourcePoint" />
            <mxPoint x="1260.0285714285715" y="915" as="targetPoint" />
            <Array as="points">
              <mxPoint x="1330" y="865" />
              <mxPoint x="1260" y="865" />
            </Array>
          </mxGeometry>
        </mxCell>
        <mxCell id="rEnnl2mZhtEM8N6RFNqr-69" value="" style="edgeStyle=orthogonalEdgeStyle;rounded=0;orthogonalLoop=1;jettySize=auto;html=1;" parent="1" source="rEnnl2mZhtEM8N6RFNqr-64" target="rEnnl2mZhtEM8N6RFNqr-68" edge="1">
          <mxGeometry relative="1" as="geometry" />
        </mxCell>
        <mxCell id="rEnnl2mZhtEM8N6RFNqr-64" value="&lt;strike&gt;PopularList&lt;/strike&gt;" style="rounded=0;whiteSpace=wrap;html=1;glass=0;" parent="1" vertex="1">
          <mxGeometry x="1200" y="910" width="120" height="60" as="geometry" />
        </mxCell>
        <mxCell id="rEnnl2mZhtEM8N6RFNqr-71" value="" style="edgeStyle=orthogonalEdgeStyle;rounded=0;orthogonalLoop=1;jettySize=auto;html=1;" parent="1" source="rEnnl2mZhtEM8N6RFNqr-65" target="rEnnl2mZhtEM8N6RFNqr-70" edge="1">
          <mxGeometry relative="1" as="geometry" />
        </mxCell>
        <mxCell id="rEnnl2mZhtEM8N6RFNqr-65" value="NowPlayingList" style="rounded=0;whiteSpace=wrap;html=1;" parent="1" vertex="1">
          <mxGeometry x="1340" y="910" width="120" height="60" as="geometry" />
        </mxCell>
        <mxCell id="rEnnl2mZhtEM8N6RFNqr-66" value="" style="endArrow=classic;html=1;rounded=0;entryX=0.5;entryY=0;entryDx=0;entryDy=0;" parent="1" target="rEnnl2mZhtEM8N6RFNqr-65" edge="1">
          <mxGeometry width="50" height="50" relative="1" as="geometry">
            <mxPoint x="1330" y="690" as="sourcePoint" />
            <mxPoint x="1480" y="911" as="targetPoint" />
            <Array as="points">
              <mxPoint x="1330" y="865" />
              <mxPoint x="1400" y="865" />
            </Array>
          </mxGeometry>
        </mxCell>
        <mxCell id="rEnnl2mZhtEM8N6RFNqr-68" value="PopularItem" style="rounded=0;whiteSpace=wrap;html=1;" parent="1" vertex="1">
          <mxGeometry x="1200" y="1050" width="120" height="60" as="geometry" />
        </mxCell>
        <mxCell id="rEnnl2mZhtEM8N6RFNqr-70" value="NowPlayingItem" style="rounded=0;whiteSpace=wrap;html=1;" parent="1" vertex="1">
          <mxGeometry x="1340" y="1050" width="120" height="60" as="geometry" />
        </mxCell>
        <mxCell id="rEnnl2mZhtEM8N6RFNqr-72" value="SerchTitleItem" style="rounded=0;whiteSpace=wrap;html=1;" parent="1" vertex="1">
          <mxGeometry x="1570" y="1050" width="120" height="60" as="geometry" />
        </mxCell>
        <mxCell id="rEnnl2mZhtEM8N6RFNqr-89" value="" style="edgeStyle=orthogonalEdgeStyle;rounded=0;orthogonalLoop=1;jettySize=auto;html=1;" parent="1" source="rEnnl2mZhtEM8N6RFNqr-78" target="rEnnl2mZhtEM8N6RFNqr-88" edge="1">
          <mxGeometry relative="1" as="geometry" />
        </mxCell>
        <mxCell id="rEnnl2mZhtEM8N6RFNqr-78" value="ArticleList" style="rounded=0;whiteSpace=wrap;html=1;" parent="1" vertex="1">
          <mxGeometry x="1870" y="900" width="120" height="60" as="geometry" />
        </mxCell>
        <mxCell id="rEnnl2mZhtEM8N6RFNqr-80" value="PopularItem" style="rounded=0;whiteSpace=wrap;html=1;" parent="1" vertex="1">
          <mxGeometry x="1210" y="1060" width="120" height="60" as="geometry" />
        </mxCell>
        <mxCell id="rEnnl2mZhtEM8N6RFNqr-81" value="&lt;strike&gt;PopularItem&lt;/strike&gt;" style="rounded=0;whiteSpace=wrap;html=1;" parent="1" vertex="1">
          <mxGeometry x="1220" y="1070" width="120" height="60" as="geometry" />
        </mxCell>
        <mxCell id="rEnnl2mZhtEM8N6RFNqr-82" value="NowPlayingItem" style="rounded=0;whiteSpace=wrap;html=1;" parent="1" vertex="1">
          <mxGeometry x="1350" y="1060" width="120" height="60" as="geometry" />
        </mxCell>
        <mxCell id="rEnnl2mZhtEM8N6RFNqr-83" value="NowPlayingItem" style="rounded=0;whiteSpace=wrap;html=1;" parent="1" vertex="1">
          <mxGeometry x="1360" y="1070" width="120" height="60" as="geometry" />
        </mxCell>
        <mxCell id="rEnnl2mZhtEM8N6RFNqr-84" value="SerchTitleItem" style="rounded=0;whiteSpace=wrap;html=1;" parent="1" vertex="1">
          <mxGeometry x="1580" y="1060" width="120" height="60" as="geometry" />
        </mxCell>
        <mxCell id="rEnnl2mZhtEM8N6RFNqr-85" value="SerchTitleItem" style="rounded=0;whiteSpace=wrap;html=1;" parent="1" vertex="1">
          <mxGeometry x="1590" y="1070" width="120" height="60" as="geometry" />
        </mxCell>
        <mxCell id="rEnnl2mZhtEM8N6RFNqr-88" value="ArticleItem" style="rounded=0;whiteSpace=wrap;html=1;" parent="1" vertex="1">
          <mxGeometry x="1870" y="1050" width="120" height="60" as="geometry" />
        </mxCell>
        <mxCell id="rEnnl2mZhtEM8N6RFNqr-90" value="ArticleItem" style="rounded=0;whiteSpace=wrap;html=1;" parent="1" vertex="1">
          <mxGeometry x="1880" y="1060" width="120" height="60" as="geometry" />
        </mxCell>
        <mxCell id="rEnnl2mZhtEM8N6RFNqr-91" value="ArticleItem" style="rounded=0;whiteSpace=wrap;html=1;" parent="1" vertex="1">
          <mxGeometry x="1890" y="1070" width="120" height="60" as="geometry" />
        </mxCell>
        <mxCell id="rEnnl2mZhtEM8N6RFNqr-104" value="" style="edgeStyle=orthogonalEdgeStyle;rounded=0;orthogonalLoop=1;jettySize=auto;html=1;" parent="1" source="rEnnl2mZhtEM8N6RFNqr-94" target="rEnnl2mZhtEM8N6RFNqr-103" edge="1">
          <mxGeometry relative="1" as="geometry">
            <Array as="points">
              <mxPoint x="1490" y="1360" />
              <mxPoint x="1310" y="1360" />
            </Array>
          </mxGeometry>
        </mxCell>
        <mxCell id="rEnnl2mZhtEM8N6RFNqr-94" value="MovieDetailView" style="rounded=0;whiteSpace=wrap;html=1;" parent="1" vertex="1">
          <mxGeometry x="1430" y="1260" width="120" height="60" as="geometry" />
        </mxCell>
        <mxCell id="rEnnl2mZhtEM8N6RFNqr-95" value="" style="endArrow=classic;html=1;rounded=0;entryX=0.576;entryY=-0.033;entryDx=0;entryDy=0;entryPerimeter=0;exitX=0.5;exitY=1;exitDx=0;exitDy=0;" parent="1" source="rEnnl2mZhtEM8N6RFNqr-81" target="rEnnl2mZhtEM8N6RFNqr-94" edge="1">
          <mxGeometry width="50" height="50" relative="1" as="geometry">
            <mxPoint x="1470" y="1170" as="sourcePoint" />
            <mxPoint x="1570" y="1170" as="targetPoint" />
            <Array as="points">
              <mxPoint x="1280" y="1210" />
              <mxPoint x="1499" y="1210" />
            </Array>
          </mxGeometry>
        </mxCell>
        <mxCell id="rEnnl2mZhtEM8N6RFNqr-97" value="" style="endArrow=none;html=1;rounded=0;entryX=0.5;entryY=1;entryDx=0;entryDy=0;" parent="1" target="rEnnl2mZhtEM8N6RFNqr-83" edge="1">
          <mxGeometry width="50" height="50" relative="1" as="geometry">
            <mxPoint x="1420" y="1210" as="sourcePoint" />
            <mxPoint x="1570" y="1170" as="targetPoint" />
          </mxGeometry>
        </mxCell>
        <mxCell id="rEnnl2mZhtEM8N6RFNqr-100" value="" style="endArrow=none;html=1;rounded=0;entryX=0.5;entryY=1;entryDx=0;entryDy=0;" parent="1" target="rEnnl2mZhtEM8N6RFNqr-85" edge="1">
          <mxGeometry width="50" height="50" relative="1" as="geometry">
            <mxPoint x="1650" y="1210" as="sourcePoint" />
            <mxPoint x="1640" y="1170" as="targetPoint" />
          </mxGeometry>
        </mxCell>
        <mxCell id="rEnnl2mZhtEM8N6RFNqr-101" value="" style="endArrow=classic;html=1;rounded=0;exitX=0.5;exitY=1;exitDx=0;exitDy=0;entryX=0.5;entryY=0;entryDx=0;entryDy=0;" parent="1" source="rEnnl2mZhtEM8N6RFNqr-91" target="rEnnl2mZhtEM8N6RFNqr-102" edge="1">
          <mxGeometry width="50" height="50" relative="1" as="geometry">
            <mxPoint x="1942.96" y="1131.02" as="sourcePoint" />
            <mxPoint x="1950" y="1210" as="targetPoint" />
          </mxGeometry>
        </mxCell>
        <mxCell id="lQRUAugFmaF-d2rS6yZW-15" value="" style="edgeStyle=none;curved=1;rounded=0;orthogonalLoop=1;jettySize=auto;html=1;fontSize=12;startSize=8;endSize=8;" edge="1" parent="1" target="lQRUAugFmaF-d2rS6yZW-14">
          <mxGeometry relative="1" as="geometry">
            <mxPoint x="2040" y="1360" as="sourcePoint" />
          </mxGeometry>
        </mxCell>
        <mxCell id="lQRUAugFmaF-d2rS6yZW-17" value="" style="edgeStyle=none;curved=1;rounded=0;orthogonalLoop=1;jettySize=auto;html=1;fontSize=12;startSize=8;endSize=8;" edge="1" parent="1" target="lQRUAugFmaF-d2rS6yZW-16">
          <mxGeometry relative="1" as="geometry">
            <mxPoint x="1870" y="1360" as="sourcePoint" />
          </mxGeometry>
        </mxCell>
        <mxCell id="rEnnl2mZhtEM8N6RFNqr-102" value="CommunityDetailView" style="rounded=0;whiteSpace=wrap;html=1;" parent="1" vertex="1">
          <mxGeometry x="1890" y="1280" width="120" height="60" as="geometry" />
        </mxCell>
        <mxCell id="rEnnl2mZhtEM8N6RFNqr-103" value="MovieTrailer" style="rounded=0;whiteSpace=wrap;html=1;" parent="1" vertex="1">
          <mxGeometry x="1250" y="1410" width="120" height="60" as="geometry" />
        </mxCell>
        <mxCell id="rEnnl2mZhtEM8N6RFNqr-109" value="" style="edgeStyle=orthogonalEdgeStyle;rounded=0;orthogonalLoop=1;jettySize=auto;html=1;" parent="1" source="rEnnl2mZhtEM8N6RFNqr-106" target="rEnnl2mZhtEM8N6RFNqr-108" edge="1">
          <mxGeometry relative="1" as="geometry" />
        </mxCell>
        <mxCell id="rEnnl2mZhtEM8N6RFNqr-106" value="ProfileView" style="rounded=0;whiteSpace=wrap;html=1;" parent="1" vertex="1">
          <mxGeometry x="2190" y="760" width="120" height="60" as="geometry" />
        </mxCell>
        <mxCell id="rEnnl2mZhtEM8N6RFNqr-107" value="" style="endArrow=classic;html=1;rounded=0;entryX=0.5;entryY=0;entryDx=0;entryDy=0;" parent="1" target="rEnnl2mZhtEM8N6RFNqr-106" edge="1">
          <mxGeometry width="50" height="50" relative="1" as="geometry">
            <mxPoint x="1930" y="690" as="sourcePoint" />
            <mxPoint x="2020" y="790" as="targetPoint" />
            <Array as="points">
              <mxPoint x="2250" y="690" />
            </Array>
          </mxGeometry>
        </mxCell>
        <mxCell id="rEnnl2mZhtEM8N6RFNqr-111" value="" style="edgeStyle=orthogonalEdgeStyle;rounded=0;orthogonalLoop=1;jettySize=auto;html=1;" parent="1" target="rEnnl2mZhtEM8N6RFNqr-110" edge="1">
          <mxGeometry relative="1" as="geometry">
            <mxPoint x="2250" y="850" as="sourcePoint" />
            <Array as="points">
              <mxPoint x="2250" y="860" />
              <mxPoint x="2440" y="860" />
            </Array>
          </mxGeometry>
        </mxCell>
        <mxCell id="rEnnl2mZhtEM8N6RFNqr-114" value="" style="edgeStyle=orthogonalEdgeStyle;rounded=0;orthogonalLoop=1;jettySize=auto;html=1;" parent="1" source="rEnnl2mZhtEM8N6RFNqr-108" target="rEnnl2mZhtEM8N6RFNqr-113" edge="1">
          <mxGeometry relative="1" as="geometry" />
        </mxCell>
        <mxCell id="rEnnl2mZhtEM8N6RFNqr-108" value="ArticlesList" style="whiteSpace=wrap;html=1;rounded=0;" parent="1" vertex="1">
          <mxGeometry x="2190" y="900" width="120" height="60" as="geometry" />
        </mxCell>
        <mxCell id="rEnnl2mZhtEM8N6RFNqr-118" value="" style="edgeStyle=orthogonalEdgeStyle;rounded=0;orthogonalLoop=1;jettySize=auto;html=1;" parent="1" source="rEnnl2mZhtEM8N6RFNqr-110" target="rEnnl2mZhtEM8N6RFNqr-117" edge="1">
          <mxGeometry relative="1" as="geometry" />
        </mxCell>
        <mxCell id="rEnnl2mZhtEM8N6RFNqr-110" value="CommentsList" style="whiteSpace=wrap;html=1;rounded=0;" parent="1" vertex="1">
          <mxGeometry x="2380" y="900" width="120" height="60" as="geometry" />
        </mxCell>
        <mxCell id="rEnnl2mZhtEM8N6RFNqr-113" value="ArticlesWorteItem" style="whiteSpace=wrap;html=1;rounded=0;" parent="1" vertex="1">
          <mxGeometry x="2190" y="1040" width="120" height="60" as="geometry" />
        </mxCell>
        <mxCell id="rEnnl2mZhtEM8N6RFNqr-115" value="ArticlesWorteItem" style="whiteSpace=wrap;html=1;rounded=0;" parent="1" vertex="1">
          <mxGeometry x="2200" y="1050" width="120" height="60" as="geometry" />
        </mxCell>
        <mxCell id="rEnnl2mZhtEM8N6RFNqr-116" value="ArticlesListItem" style="whiteSpace=wrap;html=1;rounded=0;" parent="1" vertex="1">
          <mxGeometry x="2210" y="1060" width="120" height="60" as="geometry" />
        </mxCell>
        <mxCell id="rEnnl2mZhtEM8N6RFNqr-117" value="CommentsWorteItem" style="whiteSpace=wrap;html=1;rounded=0;" parent="1" vertex="1">
          <mxGeometry x="2380" y="1040" width="120" height="60" as="geometry" />
        </mxCell>
        <mxCell id="rEnnl2mZhtEM8N6RFNqr-119" value="CommentsWorteItem" style="whiteSpace=wrap;html=1;rounded=0;" parent="1" vertex="1">
          <mxGeometry x="2390" y="1050" width="120" height="60" as="geometry" />
        </mxCell>
        <mxCell id="rEnnl2mZhtEM8N6RFNqr-120" value="CommentsListItem" style="whiteSpace=wrap;html=1;rounded=0;" parent="1" vertex="1">
          <mxGeometry x="2400" y="1060" width="120" height="60" as="geometry" />
        </mxCell>
        <mxCell id="rEnnl2mZhtEM8N6RFNqr-124" value="" style="edgeStyle=orthogonalEdgeStyle;rounded=0;orthogonalLoop=1;jettySize=auto;html=1;" parent="1" source="rEnnl2mZhtEM8N6RFNqr-121" target="rEnnl2mZhtEM8N6RFNqr-123" edge="1">
          <mxGeometry relative="1" as="geometry" />
        </mxCell>
        <mxCell id="rEnnl2mZhtEM8N6RFNqr-121" value="ReviewList" style="rounded=0;whiteSpace=wrap;html=1;" parent="1" vertex="1">
          <mxGeometry x="1430" y="1410" width="120" height="60" as="geometry" />
        </mxCell>
        <mxCell id="rEnnl2mZhtEM8N6RFNqr-122" value="" style="endArrow=classic;html=1;rounded=0;exitX=0.5;exitY=1;exitDx=0;exitDy=0;entryX=0.5;entryY=0;entryDx=0;entryDy=0;" parent="1" source="rEnnl2mZhtEM8N6RFNqr-94" target="rEnnl2mZhtEM8N6RFNqr-121" edge="1">
          <mxGeometry width="50" height="50" relative="1" as="geometry">
            <mxPoint x="1610" y="1350" as="sourcePoint" />
            <mxPoint x="1660" y="1300" as="targetPoint" />
            <Array as="points">
              <mxPoint x="1490" y="1360" />
            </Array>
          </mxGeometry>
        </mxCell>
        <mxCell id="rEnnl2mZhtEM8N6RFNqr-123" value="ReviewListItem" style="rounded=0;whiteSpace=wrap;html=1;" parent="1" vertex="1">
          <mxGeometry x="1430" y="1520" width="120" height="60" as="geometry" />
        </mxCell>
        <mxCell id="rEnnl2mZhtEM8N6RFNqr-125" value="ReviewListItem" style="rounded=0;whiteSpace=wrap;html=1;" parent="1" vertex="1">
          <mxGeometry x="1440" y="1530" width="120" height="60" as="geometry" />
        </mxCell>
        <mxCell id="rEnnl2mZhtEM8N6RFNqr-126" value="ReviewListItem" style="rounded=0;whiteSpace=wrap;html=1;" parent="1" vertex="1">
          <mxGeometry x="1450" y="1540" width="120" height="60" as="geometry" />
        </mxCell>
        <mxCell id="rEnnl2mZhtEM8N6RFNqr-127" value="ReviewCreate" style="rounded=0;whiteSpace=wrap;html=1;" parent="1" vertex="1">
          <mxGeometry x="1610" y="1410" width="120" height="60" as="geometry" />
        </mxCell>
        <mxCell id="rEnnl2mZhtEM8N6RFNqr-128" value="" style="endArrow=classic;html=1;rounded=0;entryX=0.5;entryY=0;entryDx=0;entryDy=0;" parent="1" target="rEnnl2mZhtEM8N6RFNqr-127" edge="1">
          <mxGeometry width="50" height="50" relative="1" as="geometry">
            <mxPoint x="1490" y="1360" as="sourcePoint" />
            <mxPoint x="1760" y="1410" as="targetPoint" />
            <Array as="points">
              <mxPoint x="1670" y="1360" />
            </Array>
          </mxGeometry>
        </mxCell>
        <mxCell id="QTcGTWtoXZyI2AgszmAy-2" value="" style="edgeStyle=orthogonalEdgeStyle;rounded=0;orthogonalLoop=1;jettySize=auto;html=1;" parent="1" source="QTcGTWtoXZyI2AgszmAy-1" target="rEnnl2mZhtEM8N6RFNqr-11" edge="1">
          <mxGeometry relative="1" as="geometry" />
        </mxCell>
        <mxCell id="QTcGTWtoXZyI2AgszmAy-1" value="App.vue" style="rounded=0;whiteSpace=wrap;html=1;" parent="1" vertex="1">
          <mxGeometry x="1870" y="240" width="120" height="60" as="geometry" />
        </mxCell>
        <mxCell id="QTcGTWtoXZyI2AgszmAy-6" value="SignUpView" style="whiteSpace=wrap;html=1;rounded=0;" parent="1" vertex="1">
          <mxGeometry x="1210" y="570" width="120" height="60" as="geometry" />
        </mxCell>
        <mxCell id="QTcGTWtoXZyI2AgszmAy-7" value="" style="edgeStyle=orthogonalEdgeStyle;rounded=0;orthogonalLoop=1;jettySize=auto;html=1;" parent="1" source="QTcGTWtoXZyI2AgszmAy-8" target="QTcGTWtoXZyI2AgszmAy-6" edge="1">
          <mxGeometry relative="1" as="geometry" />
        </mxCell>
        <mxCell id="QTcGTWtoXZyI2AgszmAy-8" value="LoginView&lt;br&gt;(비로그인 상태)" style="whiteSpace=wrap;html=1;rounded=0;" parent="1" vertex="1">
          <mxGeometry x="1410" y="570" width="120" height="60" as="geometry" />
        </mxCell>
        <mxCell id="QTcGTWtoXZyI2AgszmAy-9" value="" style="endArrow=classic;html=1;rounded=0;entryX=1;entryY=0.5;entryDx=0;entryDy=0;" parent="1" target="rEnnl2mZhtEM8N6RFNqr-14" edge="1">
          <mxGeometry width="50" height="50" relative="1" as="geometry">
            <mxPoint x="1555" y="440" as="sourcePoint" />
            <mxPoint x="1540" y="440" as="targetPoint" />
          </mxGeometry>
        </mxCell>
        <mxCell id="QTcGTWtoXZyI2AgszmAy-10" value="" style="endArrow=none;html=1;rounded=0;" parent="1" edge="1">
          <mxGeometry width="50" height="50" relative="1" as="geometry">
            <mxPoint x="1554.77" y="600" as="sourcePoint" />
            <mxPoint x="1554.77" y="520" as="targetPoint" />
          </mxGeometry>
        </mxCell>
        <mxCell id="QTcGTWtoXZyI2AgszmAy-11" value="" style="endArrow=classic;html=1;rounded=0;" parent="1" edge="1">
          <mxGeometry width="50" height="50" relative="1" as="geometry">
            <mxPoint x="1555" y="600" as="sourcePoint" />
            <mxPoint x="1530" y="600" as="targetPoint" />
          </mxGeometry>
        </mxCell>
        <mxCell id="lQRUAugFmaF-d2rS6yZW-2" value="" style="endArrow=none;html=1;rounded=0;fontSize=12;startSize=8;endSize=8;curved=1;" edge="1" parent="1">
          <mxGeometry width="50" height="50" relative="1" as="geometry">
            <mxPoint x="1554.77" y="520" as="sourcePoint" />
            <mxPoint x="1554.77" y="440" as="targetPoint" />
          </mxGeometry>
        </mxCell>
        <mxCell id="lQRUAugFmaF-d2rS6yZW-7" value="LogOut" style="whiteSpace=wrap;html=1;rounded=0;" vertex="1" parent="1">
          <mxGeometry x="1210" y="410" width="120" height="60" as="geometry" />
        </mxCell>
        <mxCell id="lQRUAugFmaF-d2rS6yZW-13" value="" style="endArrow=classic;html=1;rounded=0;fontSize=12;startSize=8;endSize=8;curved=1;entryX=1;entryY=0.5;entryDx=0;entryDy=0;" edge="1" parent="1" target="lQRUAugFmaF-d2rS6yZW-7">
          <mxGeometry width="50" height="50" relative="1" as="geometry">
            <mxPoint x="1410" y="520" as="sourcePoint" />
            <mxPoint x="1400" y="470" as="targetPoint" />
          </mxGeometry>
        </mxCell>
        <mxCell id="lQRUAugFmaF-d2rS6yZW-14" value="&lt;font style=&quot;font-size: 12px;&quot;&gt;CommunityUpdateView&lt;/font&gt;" style="whiteSpace=wrap;html=1;rounded=0;fontSize=16;" vertex="1" parent="1">
          <mxGeometry x="1980" y="1410" width="120" height="60" as="geometry" />
        </mxCell>
        <mxCell id="lQRUAugFmaF-d2rS6yZW-16" value="&lt;font style=&quot;font-size: 12px;&quot;&gt;CommunityCreateView&lt;/font&gt;" style="rounded=0;whiteSpace=wrap;html=1;fontSize=16;" vertex="1" parent="1">
          <mxGeometry x="1810" y="1410" width="120" height="60" as="geometry" />
        </mxCell>
        <mxCell id="lQRUAugFmaF-d2rS6yZW-18" value="" style="edgeStyle=orthogonalEdgeStyle;rounded=0;orthogonalLoop=1;jettySize=auto;html=1;" edge="1" parent="1" source="lQRUAugFmaF-d2rS6yZW-19" target="lQRUAugFmaF-d2rS6yZW-20">
          <mxGeometry relative="1" as="geometry" />
        </mxCell>
        <mxCell id="lQRUAugFmaF-d2rS6yZW-19" value="ReviewsList" style="whiteSpace=wrap;html=1;rounded=0;" vertex="1" parent="1">
          <mxGeometry x="2570" y="900" width="120" height="60" as="geometry" />
        </mxCell>
        <mxCell id="lQRUAugFmaF-d2rS6yZW-20" value="ReviewsListItem" style="whiteSpace=wrap;html=1;rounded=0;" vertex="1" parent="1">
          <mxGeometry x="2570" y="1040" width="120" height="60" as="geometry" />
        </mxCell>
        <mxCell id="lQRUAugFmaF-d2rS6yZW-23" value="" style="edgeStyle=orthogonalEdgeStyle;rounded=0;orthogonalLoop=1;jettySize=auto;html=1;" edge="1" parent="1">
          <mxGeometry relative="1" as="geometry">
            <mxPoint x="2440" y="870" as="sourcePoint" />
            <Array as="points">
              <mxPoint x="2440" y="860" />
              <mxPoint x="2630" y="860" />
            </Array>
            <mxPoint x="2630" y="900" as="targetPoint" />
          </mxGeometry>
        </mxCell>
        <mxCell id="lQRUAugFmaF-d2rS6yZW-24" value="ReviewsListItem" style="whiteSpace=wrap;html=1;rounded=0;" vertex="1" parent="1">
          <mxGeometry x="2580" y="1050" width="120" height="60" as="geometry" />
        </mxCell>
        <mxCell id="lQRUAugFmaF-d2rS6yZW-25" value="ReviewsListItem" style="whiteSpace=wrap;html=1;rounded=0;" vertex="1" parent="1">
          <mxGeometry x="2590" y="1060" width="120" height="60" as="geometry" />
        </mxCell>
        <mxCell id="lQRUAugFmaF-d2rS6yZW-26" value="" style="endArrow=none;html=1;rounded=0;fontSize=12;startSize=8;endSize=8;curved=1;" edge="1" parent="1">
          <mxGeometry width="50" height="50" relative="1" as="geometry">
            <mxPoint x="1500" y="1210" as="sourcePoint" />
            <mxPoint x="1650" y="1210" as="targetPoint" />
          </mxGeometry>
        </mxCell>
        <mxCell id="lQRUAugFmaF-d2rS6yZW-27" value="&lt;font style=&quot;font-size: 12px;&quot;&gt;ChangePassword&lt;/font&gt;" style="whiteSpace=wrap;html=1;rounded=0;fontSize=16;" vertex="1" parent="1">
          <mxGeometry x="1010" y="490" width="120" height="60" as="geometry" />
        </mxCell>
        <mxCell id="lQRUAugFmaF-d2rS6yZW-32" value="MovieDelete&lt;br&gt;MovieModify" style="rounded=0;whiteSpace=wrap;html=1;" vertex="1" parent="1">
          <mxGeometry x="1080" y="1410" width="120" height="60" as="geometry" />
        </mxCell>
        <mxCell id="lQRUAugFmaF-d2rS6yZW-33" value="" style="endArrow=none;html=1;rounded=0;fontSize=12;startSize=8;endSize=8;curved=1;" edge="1" parent="1">
          <mxGeometry width="50" height="50" relative="1" as="geometry">
            <mxPoint x="1139.2962962962963" y="1360" as="sourcePoint" />
            <mxPoint x="1313" y="1360" as="targetPoint" />
          </mxGeometry>
        </mxCell>
        <mxCell id="lQRUAugFmaF-d2rS6yZW-34" value="" style="endArrow=classic;html=1;rounded=0;fontSize=12;startSize=8;endSize=8;curved=1;entryX=0.5;entryY=0;entryDx=0;entryDy=0;" edge="1" parent="1" target="lQRUAugFmaF-d2rS6yZW-32">
          <mxGeometry width="50" height="50" relative="1" as="geometry">
            <mxPoint x="1140" y="1360" as="sourcePoint" />
            <mxPoint x="1270" y="1540" as="targetPoint" />
          </mxGeometry>
        </mxCell>
        <mxCell id="lQRUAugFmaF-d2rS6yZW-36" value="" style="endArrow=none;html=1;rounded=0;fontSize=12;startSize=8;endSize=8;curved=1;" edge="1" parent="1">
          <mxGeometry width="50" height="50" relative="1" as="geometry">
            <mxPoint x="904.074074074074" y="690" as="sourcePoint" />
            <mxPoint x="1330" y="690" as="targetPoint" />
          </mxGeometry>
        </mxCell>
        <mxCell id="lQRUAugFmaF-d2rS6yZW-37" value="" style="endArrow=classic;html=1;rounded=0;fontSize=12;startSize=8;endSize=8;curved=1;entryX=0.5;entryY=0;entryDx=0;entryDy=0;" edge="1" parent="1" target="lQRUAugFmaF-d2rS6yZW-38">
          <mxGeometry width="50" height="50" relative="1" as="geometry">
            <mxPoint x="905" y="690" as="sourcePoint" />
            <mxPoint x="905" y="760" as="targetPoint" />
          </mxGeometry>
        </mxCell>
        <mxCell id="lQRUAugFmaF-d2rS6yZW-40" value="" style="edgeStyle=none;curved=1;rounded=0;orthogonalLoop=1;jettySize=auto;html=1;fontSize=12;startSize=8;endSize=8;entryX=0.5;entryY=0;entryDx=0;entryDy=0;" edge="1" parent="1" source="lQRUAugFmaF-d2rS6yZW-38">
          <mxGeometry relative="1" as="geometry">
            <mxPoint x="905" y="960" as="targetPoint" />
          </mxGeometry>
        </mxCell>
        <mxCell id="lQRUAugFmaF-d2rS6yZW-38" value="&lt;font style=&quot;font-size: 12px;&quot;&gt;MoviePickButtons&lt;/font&gt;" style="rounded=0;whiteSpace=wrap;html=1;fontSize=16;" vertex="1" parent="1">
          <mxGeometry x="845" y="760" width="120" height="60" as="geometry" />
        </mxCell>
        <mxCell id="lQRUAugFmaF-d2rS6yZW-42" value="" style="endArrow=none;html=1;rounded=0;fontSize=12;startSize=8;endSize=8;curved=1;" edge="1" parent="1">
          <mxGeometry width="50" height="50" relative="1" as="geometry">
            <mxPoint x="710" y="880" as="sourcePoint" />
            <mxPoint x="1100" y="880" as="targetPoint" />
          </mxGeometry>
        </mxCell>
        <mxCell id="lQRUAugFmaF-d2rS6yZW-43" value="" style="endArrow=classic;html=1;rounded=0;fontSize=12;startSize=8;endSize=8;curved=1;" edge="1" parent="1">
          <mxGeometry width="50" height="50" relative="1" as="geometry">
            <mxPoint x="710" y="880" as="sourcePoint" />
            <mxPoint x="710" y="960" as="targetPoint" />
          </mxGeometry>
        </mxCell>
        <mxCell id="lQRUAugFmaF-d2rS6yZW-44" value="" style="endArrow=classic;html=1;rounded=0;fontSize=12;startSize=8;endSize=8;curved=1;" edge="1" parent="1">
          <mxGeometry width="50" height="50" relative="1" as="geometry">
            <mxPoint x="1100" y="880" as="sourcePoint" />
            <mxPoint x="1100" y="960" as="targetPoint" />
          </mxGeometry>
        </mxCell>
        <mxCell id="lQRUAugFmaF-d2rS6yZW-46" value="&lt;font style=&quot;font-size: 12px;&quot;&gt;RandomDetail&lt;/font&gt;" style="rounded=0;whiteSpace=wrap;html=1;fontSize=16;" vertex="1" parent="1">
          <mxGeometry x="1040" y="960" width="120" height="60" as="geometry" />
        </mxCell>
        <mxCell id="lQRUAugFmaF-d2rS6yZW-51" value="" style="edgeStyle=none;curved=1;rounded=0;orthogonalLoop=1;jettySize=auto;html=1;fontSize=12;startSize=8;endSize=8;" edge="1" parent="1" source="lQRUAugFmaF-d2rS6yZW-47" target="lQRUAugFmaF-d2rS6yZW-50">
          <mxGeometry relative="1" as="geometry" />
        </mxCell>
        <mxCell id="lQRUAugFmaF-d2rS6yZW-47" value="&lt;font style=&quot;font-size: 12px;&quot;&gt;ActorChallegeView&lt;/font&gt;" style="rounded=0;whiteSpace=wrap;html=1;fontSize=16;" vertex="1" parent="1">
          <mxGeometry x="650" y="960" width="120" height="60" as="geometry" />
        </mxCell>
        <mxCell id="lQRUAugFmaF-d2rS6yZW-53" value="" style="edgeStyle=none;curved=1;rounded=0;orthogonalLoop=1;jettySize=auto;html=1;fontSize=12;startSize=8;endSize=8;" edge="1" parent="1" source="lQRUAugFmaF-d2rS6yZW-48" target="lQRUAugFmaF-d2rS6yZW-52">
          <mxGeometry relative="1" as="geometry" />
        </mxCell>
        <mxCell id="lQRUAugFmaF-d2rS6yZW-48" value="&lt;font style=&quot;font-size: 12px;&quot;&gt;MovieChallengeView&lt;/font&gt;" style="rounded=0;whiteSpace=wrap;html=1;fontSize=16;" vertex="1" parent="1">
          <mxGeometry x="845" y="960" width="120" height="60" as="geometry" />
        </mxCell>
        <mxCell id="lQRUAugFmaF-d2rS6yZW-49" value="" style="endArrow=classic;html=1;rounded=0;fontSize=12;startSize=8;endSize=8;curved=1;exitX=0.5;exitY=1;exitDx=0;exitDy=0;entryX=0;entryY=0.5;entryDx=0;entryDy=0;" edge="1" parent="1" source="lQRUAugFmaF-d2rS6yZW-46" target="rEnnl2mZhtEM8N6RFNqr-94">
          <mxGeometry width="50" height="50" relative="1" as="geometry">
            <mxPoint x="1350" y="920" as="sourcePoint" />
            <mxPoint x="1400" y="870" as="targetPoint" />
            <Array as="points">
              <mxPoint x="1070" y="1320" />
            </Array>
          </mxGeometry>
        </mxCell>
        <mxCell id="lQRUAugFmaF-d2rS6yZW-50" value="&lt;span style=&quot;font-size: 12px;&quot;&gt;ActorChallnge&lt;/span&gt;" style="rounded=0;whiteSpace=wrap;html=1;fontSize=16;" vertex="1" parent="1">
          <mxGeometry x="650" y="1140" width="120" height="60" as="geometry" />
        </mxCell>
        <mxCell id="lQRUAugFmaF-d2rS6yZW-52" value="&lt;font style=&quot;font-size: 12px;&quot;&gt;MovieChallenge&lt;/font&gt;" style="rounded=0;whiteSpace=wrap;html=1;fontSize=16;" vertex="1" parent="1">
          <mxGeometry x="845" y="1140" width="120" height="60" as="geometry" />
        </mxCell>
        <mxCell id="lQRUAugFmaF-d2rS6yZW-54" value="&lt;span style=&quot;font-size: 12px;&quot;&gt;ActorChallnge&lt;/span&gt;" style="rounded=0;whiteSpace=wrap;html=1;fontSize=16;" vertex="1" parent="1">
          <mxGeometry x="660" y="1150" width="120" height="60" as="geometry" />
        </mxCell>
        <mxCell id="lQRUAugFmaF-d2rS6yZW-59" value="" style="edgeStyle=none;curved=1;rounded=0;orthogonalLoop=1;jettySize=auto;html=1;fontSize=12;startSize=8;endSize=8;" edge="1" parent="1" source="lQRUAugFmaF-d2rS6yZW-55" target="lQRUAugFmaF-d2rS6yZW-58">
          <mxGeometry relative="1" as="geometry" />
        </mxCell>
        <mxCell id="lQRUAugFmaF-d2rS6yZW-55" value="&lt;span style=&quot;font-size: 12px;&quot;&gt;ActorChallnge&lt;/span&gt;" style="rounded=0;whiteSpace=wrap;html=1;fontSize=16;" vertex="1" parent="1">
          <mxGeometry x="670" y="1160" width="120" height="60" as="geometry" />
        </mxCell>
        <mxCell id="lQRUAugFmaF-d2rS6yZW-56" value="&lt;font style=&quot;font-size: 12px;&quot;&gt;MovieChallenge&lt;/font&gt;" style="rounded=0;whiteSpace=wrap;html=1;fontSize=16;" vertex="1" parent="1">
          <mxGeometry x="855" y="1150" width="120" height="60" as="geometry" />
        </mxCell>
        <mxCell id="lQRUAugFmaF-d2rS6yZW-61" value="" style="edgeStyle=none;curved=1;rounded=0;orthogonalLoop=1;jettySize=auto;html=1;fontSize=12;startSize=8;endSize=8;" edge="1" parent="1" source="lQRUAugFmaF-d2rS6yZW-57" target="lQRUAugFmaF-d2rS6yZW-60">
          <mxGeometry relative="1" as="geometry" />
        </mxCell>
        <mxCell id="lQRUAugFmaF-d2rS6yZW-57" value="&lt;font style=&quot;font-size: 12px;&quot;&gt;MovieChallenge&lt;/font&gt;" style="rounded=0;whiteSpace=wrap;html=1;fontSize=16;" vertex="1" parent="1">
          <mxGeometry x="865" y="1160" width="120" height="60" as="geometry" />
        </mxCell>
        <mxCell id="lQRUAugFmaF-d2rS6yZW-58" value="&lt;span style=&quot;font-size: 12px;&quot;&gt;ChallngeResultActor&lt;/span&gt;" style="rounded=0;whiteSpace=wrap;html=1;fontSize=16;" vertex="1" parent="1">
          <mxGeometry x="670" y="1340" width="120" height="60" as="geometry" />
        </mxCell>
        <mxCell id="lQRUAugFmaF-d2rS6yZW-60" value="&lt;font style=&quot;font-size: 12px;&quot;&gt;ChallengeResult&lt;/font&gt;" style="rounded=0;whiteSpace=wrap;html=1;fontSize=16;" vertex="1" parent="1">
          <mxGeometry x="865" y="1340" width="120" height="60" as="geometry" />
        </mxCell>
        <mxCell id="lQRUAugFmaF-d2rS6yZW-62" value="" style="endArrow=none;html=1;rounded=0;fontSize=12;startSize=8;endSize=8;curved=1;" edge="1" parent="1">
          <mxGeometry width="50" height="50" relative="1" as="geometry">
            <mxPoint x="1330" y="690" as="sourcePoint" />
            <mxPoint x="1630" y="690" as="targetPoint" />
          </mxGeometry>
        </mxCell>
        <mxCell id="lQRUAugFmaF-d2rS6yZW-63" value="" style="endArrow=none;html=1;rounded=0;fontSize=12;startSize=8;endSize=8;curved=1;" edge="1" parent="1">
          <mxGeometry width="50" height="50" relative="1" as="geometry">
            <mxPoint x="1870" y="1360" as="sourcePoint" />
            <mxPoint x="2040" y="1360" as="targetPoint" />
          </mxGeometry>
        </mxCell>
        <mxCell id="lQRUAugFmaF-d2rS6yZW-64" value="" style="endArrow=none;html=1;rounded=0;fontSize=12;startSize=8;endSize=8;curved=1;entryX=0.5;entryY=1;entryDx=0;entryDy=0;" edge="1" parent="1" target="rEnnl2mZhtEM8N6RFNqr-102">
          <mxGeometry width="50" height="50" relative="1" as="geometry">
            <mxPoint x="1950" y="1360" as="sourcePoint" />
            <mxPoint x="1880" y="1250" as="targetPoint" />
          </mxGeometry>
        </mxCell>
        <mxCell id="lQRUAugFmaF-d2rS6yZW-65" style="edgeStyle=orthogonalEdgeStyle;rounded=0;orthogonalLoop=1;jettySize=auto;html=1;exitX=0;exitY=0.5;exitDx=0;exitDy=0;entryX=0.5;entryY=0;entryDx=0;entryDy=0;" edge="1" parent="1">
          <mxGeometry relative="1" as="geometry">
            <mxPoint x="1875.23" y="270" as="sourcePoint" />
            <mxPoint x="1785.23" y="490" as="targetPoint" />
          </mxGeometry>
        </mxCell>
        <mxCell id="lQRUAugFmaF-d2rS6yZW-66" value="" style="edgeStyle=orthogonalEdgeStyle;rounded=0;orthogonalLoop=1;jettySize=auto;html=1;" edge="1" parent="1">
          <mxGeometry relative="1" as="geometry">
            <mxPoint x="1935.23" y="550" as="sourcePoint" />
            <mxPoint x="1935.23" y="760" as="targetPoint" />
          </mxGeometry>
        </mxCell>
        <mxCell id="lQRUAugFmaF-d2rS6yZW-67" value="" style="edgeStyle=orthogonalEdgeStyle;rounded=0;orthogonalLoop=1;jettySize=auto;html=1;" edge="1" parent="1">
          <mxGeometry relative="1" as="geometry">
            <mxPoint x="1935.23" y="410" as="sourcePoint" />
            <mxPoint x="1935.23" y="490" as="targetPoint" />
          </mxGeometry>
        </mxCell>
        <mxCell id="lQRUAugFmaF-d2rS6yZW-68" value="" style="edgeStyle=orthogonalEdgeStyle;rounded=0;orthogonalLoop=1;jettySize=auto;html=1;" edge="1" parent="1">
          <mxGeometry relative="1" as="geometry">
            <mxPoint x="1935.23" y="300" as="sourcePoint" />
            <mxPoint x="1935.23" y="350" as="targetPoint" />
          </mxGeometry>
        </mxCell>
        <mxCell id="lQRUAugFmaF-d2rS6yZW-69" value="" style="endArrow=classic;html=1;rounded=0;entryX=0.5;entryY=0;entryDx=0;entryDy=0;" edge="1" parent="1">
          <mxGeometry width="50" height="50" relative="1" as="geometry">
            <mxPoint x="1935.23" y="690" as="sourcePoint" />
            <mxPoint x="1635.23" y="760" as="targetPoint" />
            <Array as="points">
              <mxPoint x="1635.23" y="690" />
            </Array>
          </mxGeometry>
        </mxCell>
        <mxCell id="lQRUAugFmaF-d2rS6yZW-70" value="" style="endArrow=none;html=1;rounded=0;fontSize=12;startSize=8;endSize=8;curved=1;" edge="1" parent="1">
          <mxGeometry width="50" height="50" relative="1" as="geometry">
            <mxPoint x="1560" y="520" as="sourcePoint" />
            <mxPoint x="1560" y="440" as="targetPoint" />
          </mxGeometry>
        </mxCell>
        <mxCell id="lQRUAugFmaF-d2rS6yZW-71" value="" style="endArrow=none;html=1;rounded=0;fontSize=12;startSize=8;endSize=8;curved=1;" edge="1" parent="1">
          <mxGeometry width="50" height="50" relative="1" as="geometry">
            <mxPoint x="1560" y="530" as="sourcePoint" />
            <mxPoint x="1560" y="440" as="targetPoint" />
          </mxGeometry>
        </mxCell>
      </root>
    </mxGraphModel>
  </diagram>
</mxfile>
